<svg height="512pt" viewBox="0 0 512 511" width="512pt" xmlns="http://www.w3.org/2000/svg"><path d="M8 8.5h496v416H8zm0 0" fill="#ffe082"/><path d="M8 8.5h496v64H8zm0 0" fill="#9fa8da"/><path d="M416 284.598v-40.196l-37.727-13.414-12.12-29.25 17.19-36.168-28.413-28.414-36.168 17.192-29.25-12.121-13.414-37.727h-40.196l-13.414 37.727-29.25 12.12-36.168-17.19-28.414 28.413 17.192 36.168-12.121 29.25L96 244.402v40.196l37.727 13.414 12.12 29.25-17.19 36.168 28.413 28.414 36.168-17.192 29.25 12.121 13.414 37.727h40.196l13.414-37.727 29.25-12.12 36.168 17.19 28.414-28.413-17.192-36.168 12.121-29.25zm-160.625 51.277c-39.762 0-72-32.234-72-72 0-39.762 32.238-72 72-72 39.766 0 72 32.238 72 72 0 39.766-32.234 72-72 72zm0 0" fill="#ff8a65"/><path d="M489.426 446.14l-122.496-116 14.343-53.535-65.32-65.32-53.555 14.375 52.258 52.254-45.258 45.258-52.238-52.274-14.344 53.54 65.32 65.32 53.536-14.348L444.07 493.547a32.812 32.812 0 0 0 24.04 9.183 32.805 32.805 0 0 0 23.265-10.992c11.766-13.234 10.902-33.418-1.95-45.597zm0 0" fill="#9fa8da"/><path d="M160 32.5h320v16H160zm-128 0h16v16H32zm32 0h16v16H64zm32 0h16v16H96zm0 0" fill="#fff"/><path d="M512 .5H0v432h369.297l69.238 66.824a40.465 40.465 0 0 0 28.29 11.442h1.6a40.81 40.81 0 0 0 36.626-26.403 40.807 40.807 0 0 0-10.14-44l-8.255-7.863H512zm-241.55 416h-28.9l-12.75-35.762-35.808-14.832-34.289 16.29-20.43-20.43 16.286-34.29-14.797-35.777L104 278.95v-28.898l35.762-12.719 14.832-35.809-16.29-34.289 20.43-20.43 34.29 16.29 35.777-14.832 12.75-35.762h28.898l12.719 35.762 35.809 14.832 34.289-16.29 20.43 20.43-16.29 34.29 14.832 35.777L408 250.05v28.898l-21.07 7.488 3.261-12.183-71.847-71.86-9.176 2.465a79.197 79.197 0 0 0-53.793-20.984c-44.16.05-79.95 35.84-80 80a79.208 79.208 0 0 0 20.977 53.793l-2.457 9.176 71.847 71.847 12.195-3.261zm19.382-206.465l-42.871 11.488 56.398 56.403-33.945 33.933-56.39-56.39-11.489 42.87a63.31 63.31 0 0 1-10.16-34.464c.04-35.328 28.672-63.96 64-64a63.284 63.284 0 0 1 34.457 10.16zM287.434 416.5l9.277-26.105 22.664-6.063 33.336 32.168zm197.972 69.938a24.59 24.59 0 0 1-17.597 8.308 24.933 24.933 0 0 1-18.176-6.941L376 416.738v-.238h-.246L324 366.531l-53.45 14.32-58.808-58.75 9.602-35.69 48.113 48.112 56.566-56.558-48.12-48.121 35.699-9.602 58.789 58.785-14.399 53.672 125.93 119.258c9.785 9.176 10.445 24.492 1.484 34.48zM496 416.5h-26.246l-93.867-88.855 6.015-22.403 42.098-15v-51.484l-39.695-14.106-9.403-22.68 18.09-38.066-36.398-36.398-38.067 18.09-22.68-9.403L281.743 96.5h-51.484l-14.106 39.695-22.68 9.403-38.066-18.09-36.398 36.398 18.09 38.067-9.403 22.68L88 238.757v51.484l39.695 14.106 9.403 22.68-18.09 38.066 36.398 36.398 38.067-18.09 22.68 9.403 8.413 23.695H16v-336h480zm0-352H16v-48h480zm0 0"/></svg>