<svg xmlns="http://www.w3.org/2000/svg" width="1069.27" height="510"><defs><clipPath clipPathUnits="userSpaceOnUse" id="a"><path d="M230.43 28.437h47.158v20.564H230.43V28.437z"/></clipPath></defs><path d="M532.946 62.103S664.08 60.863 783.55 99c119.493 38.113 196.618 106.804 196.618 106.804l80.456.025s-84.564-93.216-247.201-150.41C650.785-1.751 532.946 5.273 532.946 5.273v56.83" fill="#006bb6"/><path d="M259.955 52.72C107.137 100.824 5.243 205.854 5.243 205.854l80.504-.024s66.674-65.07 195.525-105.906C410.099 59.09 532.727 62.127 532.727 62.127V5.297S413.672-.827 259.955 52.72" fill="#0cb14b"/><path d="M466.952 221.727l124.89 176.128-.657-175.569 79.97-.194.048 280.599-92.39-.024L449.84 328.435l-1.385 174.232h-78.973V221.703" fill="#8e979d"/><path d="M1064.27 505l-96.693-.486-84.904-101.238L783.574 505h-80.699l142.828-145.744-113.61-135.39 94.237.073 71.073 82.838 82.376-82.838h80.7l-126.13 126.882" fill="#006bb6"/><g clip-path="url(#a)" transform="matrix(24.3069 0 0 -24.3069 -5596.04 1196.215)"><path d="M237.668 34.645l-.471.593 4.705 4.773h-3.362l-4.791-4.871v4.859h-3.311l-.008-11.561 3.319-.001v3.302l1.312 1.33 3.881-4.619 3.971.001" fill="#0cb14b"/></g></svg>