<svg xmlns="http://www.w3.org/2000/svg" viewBox="0 0 512 512"><path fill="#929298" d="M361.901 497H150.099L185.2 391h141.6z"/><path fill="#7c8388" d="M361.901 497H256V391h70.8z"/><path fill="#5a5a5a" d="M121 482h270v30H121z"/><path fill="#444" d="M256 482h135v30H256z"/><path d="M407 211H106C48.1 211 0 258.1 0 316s48.1 105 106 105h301c57.9 0 105-47.1 105-105s-47.1-105-105-105z" fill="#5a5a5a"/><path d="M512 316c0 57.9-47.1 105-105 105H256V211h151c57.9 0 105 47.1 105 105z" fill="#444"/><g fill="#25d9f8"><path d="M415 66l-21.299 21.299C357.1 50.4 307.899 30 256 30S154.9 50.4 118.299 87.299L97 66c42.6-42.601 99-66 159-66s116.4 23.399 159 66zm-84.901 84.899l-20.999 21c-13.5-13.5-33.301-20.099-53.1-20.099s-39.6 6.599-53.101 20.099l-20.999-21c18.898-19.199 45.899-30 74.099-30s55.202 10.801 74.1 30z"/><path d="M372.7 108.3l-21.3 21.3C325.901 104.099 292 90 256 90s-69.901 14.099-95.4 39.6l-21.3-21.3C170.501 77.1 211.901 60 256 60s85.499 17.1 116.7 48.3z"/></g><path d="M106 361c-24.814 0-45-20.186-45-45s20.186-45 45-45 45 20.186 45 45-20.186 45-45 45z" fill="#ff9100"/><path d="M256 271c-24.901 0-45 20.099-45 45 0 24.899 20.099 45 45 45s45-20.101 45-45c0-24.901-20.099-45-45-45z" fill="#ede9e8"/><path d="M407 361c-24.814 0-46-20.186-46-45s21.186-45 46-45 45 20.186 45 45-20.186 45-45 45z" fill="#00c0f1"/><path d="M256 361v-90c24.901 0 45 20.099 45 45 0 24.899-20.099 45-45 45z" fill="#dfd7d5"/><path d="M309.101 171.899C295.6 158.399 275.799 151.8 256 151.8v-30.901c28.2 0 55.201 10.801 74.099 30l-20.998 21zM351.4 129.6C325.901 104.099 292 90 256 90V60c44.099 0 85.499 17.1 116.7 48.3l-21.3 21.3zm42.301-42.301C357.1 50.4 307.899 30 256 30V0c60 0 116.4 23.399 159 66l-21.299 21.299z" fill="#00c0f1"/></svg>