<svg xmlns="http://www.w3.org/2000/svg" xmlns:xlink="http://www.w3.org/1999/xlink" width="61.406" height="60.406"><defs><linearGradient xlink:href="#a" id="e" gradientUnits="userSpaceOnUse" x1="319.978" y1="808.275" x2="339.085" y2="788.63"/><linearGradient id="a"><stop offset="0" stop-color="#fff"/><stop offset="1" stop-color="#fff" stop-opacity="0"/></linearGradient><clipPath clipPathUnits="userSpaceOnUse" id="d"><rect y="791.352" x="278.592" height="58.107" width="62.467" ry="7.681" fill="none" stroke="#e3d7eb" stroke-width="1.521" stroke-linecap="round" stroke-linejoin="round"/></clipPath><filter color-interpolation-filters="sRGB" id="f"><feGaussianBlur stdDeviation=".449"/></filter><linearGradient xlink:href="#b" id="h" gradientUnits="userSpaceOnUse" x1="295.993" y1="827.13" x2="345.269" y2="785.752"/><linearGradient id="b"><stop offset="0" stop-color="#8d89c2"/><stop offset="1" stop-color="#fffff9" stop-opacity=".983"/></linearGradient><clipPath clipPathUnits="userSpaceOnUse" id="g"><rect y="791.18" x="282.071" height="53.396" width="54.94" ry="7.059" fill="none" stroke="#e3d7eb" stroke-width="1.368" stroke-linecap="round" stroke-linejoin="round"/></clipPath><filter color-interpolation-filters="sRGB" id="i"><feGaussianBlur stdDeviation=".404"/></filter><linearGradient xlink:href="#b" id="k" gradientUnits="userSpaceOnUse" x1="113.763" y1="496.373" x2="104.471" y2="486.989"/><clipPath clipPathUnits="userSpaceOnUse" id="j"><rect y="-113.349" x="478.406" height="17.485" width="17.856" ry="2.311" transform="rotate(90)" fill="none" stroke="#e3d7eb" stroke-width=".446" stroke-linecap="round" stroke-linejoin="round"/></clipPath><filter color-interpolation-filters="sRGB" id="l"><feGaussianBlur stdDeviation=".132"/></filter><linearGradient xlink:href="#b" id="n" gradientUnits="userSpaceOnUse" x1="113.118" y1="495.984" x2="102.379" y2="484.347"/><clipPath clipPathUnits="userSpaceOnUse" id="m"><rect y="-117.269" x="478.375" height="20.53" width="22.018" ry="2.714" transform="rotate(90)" fill="none" stroke="#e3d7eb" stroke-width=".537" stroke-linecap="round" stroke-linejoin="round"/></clipPath><filter color-interpolation-filters="sRGB" id="o"><feGaussianBlur stdDeviation=".159"/></filter><linearGradient xlink:href="#b" id="q" gradientUnits="userSpaceOnUse" x1="113.11" y1="496.126" x2="101.533" y2="483.054"/><clipPath clipPathUnits="userSpaceOnUse" id="p"><rect y="-124.217" x="478.777" height="28.464" width="30.026" ry="3.763" transform="rotate(90)" fill="none" stroke="#e3d7eb" stroke-width=".738" stroke-linecap="round" stroke-linejoin="round"/></clipPath><filter color-interpolation-filters="sRGB" id="r"><feGaussianBlur stdDeviation=".218"/></filter><linearGradient xlink:href="#c" id="t" gradientUnits="userSpaceOnUse" x1="110.441" y1="493.233" x2="96.31" y2="479.097"/><linearGradient id="c"><stop offset="0" stop-color="#6f1171"/><stop offset="1" stop-color="#bea1c7"/></linearGradient><clipPath clipPathUnits="userSpaceOnUse" id="s"><rect y="-135.258" x="479.47" height="38.738" width="40.16" ry="5.121" transform="rotate(90)" fill="none" stroke="#e3d7eb" stroke-width=".996" stroke-linecap="round" stroke-linejoin="round"/></clipPath><filter color-interpolation-filters="sRGB" id="u"><feGaussianBlur stdDeviation=".294"/></filter></defs><g transform="translate(-278.875 -786.969)"><path transform="matrix(.9589 0 0 1.01364 13.017 -14.016)" clip-path="url(#d)" fill="url(#e)" filter="url(#f)" d="M278.023 791.443h58.215v58.328h-58.215z"/><path transform="matrix(1.09027 0 0 1.10308 -27.373 -84.605)" clip-path="url(#g)" fill="url(#h)" filter="url(#i)" d="M278.023 791.443h58.215v58.328h-58.215z"/><path clip-path="url(#j)" d="M118.184 477.941c0 12.712-10.287 23.027-23 23.06l-.06-23.06z" transform="matrix(0 -3.36853 3.3545 0 -1324.655 1169.947)" fill="url(#k)" stroke="#807ead" stroke-width=".654" stroke-linejoin="round" filter="url(#l)"/><path clip-path="url(#m)" d="M118.184 477.941c0 12.712-10.287 23.027-23 23.06l-.06-23.06z" transform="matrix(0 -2.86894 2.72052 0 -1021.27 1124.564)" fill="url(#n)" stroke="#807ead" stroke-width=".787" stroke-linejoin="round" filter="url(#o)"/><path clip-path="url(#p)" transform="matrix(0 -2.0693 1.99492 0 -674.962 1045.17)" d="M118.184 477.941c0 12.712-10.287 23.027-23 23.06l-.06-23.06z" fill="url(#q)" stroke="#807ead" stroke-width="1.083" stroke-linejoin="round" filter="url(#r)"/><path clip-path="url(#s)" d="M118.184 477.941c0 12.712-10.287 23.027-23 23.06l-.06-23.06z" transform="matrix(0 -1.52048 1.4915 0 -434.971 993.784)" fill="url(#t)" filter="url(#u)"/><rect ry="7.786" width="59.899" height="58.9" x="279.619" y="787.715" fill="none" stroke="#e3d7eb" stroke-width="1.5" stroke-linecap="round" stroke-linejoin="round"/></g></svg>