<svg height="512pt" viewBox="0 0 512 512" width="512pt" xmlns="http://www.w3.org/2000/svg"><path d="M502 42c0 17.672-14.328 32-32 32s-32-14.328-32-32 14.328-32 32-32 32 14.328 32 32zm0 0" fill="#91def5"/><path d="M502 470c0 17.672-14.328 32-32 32s-32-14.328-32-32 14.328-32 32-32 32 14.328 32 32zm0 0" fill="#ff6977"/><path d="M74 470c0 17.672-14.328 32-32 32s-32-14.328-32-32 14.328-32 32-32 32 14.328 32 32zm0 0" fill="#ffcb7c"/><path d="M74 42c0 17.672-14.328 32-32 32S10 59.672 10 42s14.328-32 32-32 32 14.328 32 32zm0 0" fill="#d8ec84"/><path d="M408 277.008v-42.016a6.178 6.178 0 00-6.18-6.18H378.7a124.78 124.78 0 00-16.708-40.359l16.344-16.34a6.184 6.184 0 000-8.738l-29.711-29.71a6.184 6.184 0 00-8.738 0l-16.34 16.343a124.817 124.817 0 00-40.36-16.707V110.18a6.178 6.178 0 00-6.18-6.18h-42.015a6.178 6.178 0 00-6.18 6.18v23.152a124.846 124.846 0 00-40.296 16.734l-16.403-16.402a6.184 6.184 0 00-8.738 0l-29.71 29.711a6.184 6.184 0 000 8.738l16.437 16.438a124.765 124.765 0 00-16.645 40.262H110.18a6.178 6.178 0 00-6.18 6.18v42.015a6.178 6.178 0 006.18 6.18h23.308a124.809 124.809 0 0016.676 40.203l-16.5 16.496a6.184 6.184 0 000 8.738l29.711 29.71a6.184 6.184 0 008.738 0l16.496-16.495a124.924 124.924 0 0040.204 16.672v23.308a6.178 6.178 0 006.18 6.18h42.015a6.178 6.178 0 006.18-6.18v-23.273a124.859 124.859 0 0040.261-16.649l16.438 16.438a6.177 6.177 0 008.738 0l29.71-29.711a6.177 6.177 0 000-8.738l-16.401-16.399a124.78 124.78 0 0016.734-40.3h23.152a6.178 6.178 0 006.18-6.18zm0 0" fill="#60a4ff"/><path d="M328 256c0 39.766-32.234 72-72 72s-72-32.234-72-72 32.234-72 72-72 72 32.234 72 72zm0 0" fill="#fff"/><path d="M284 256c0 15.465-12.535 28-28 28s-28-12.535-28-28 12.535-28 28-28 28 12.535 28 28zm0 0" fill="#ff6977"/><path d="M385.406 332.816l-10.89-10.89a134.27 134.27 0 0011.933-28.739h15.371c8.922 0 16.18-7.257 16.18-16.18v-42.015c0-8.922-7.258-16.18-16.18-16.18h-15.328a134.286 134.286 0 00-11.918-28.796l10.832-10.832c6.309-6.309 6.309-16.575 0-22.883L355.7 126.594a16.07 16.07 0 00-11.441-4.739c-4.32 0-8.387 1.68-11.442 4.739l-10.832 10.832a134.286 134.286 0 00-28.797-11.918v-15.332c0-8.918-7.257-16.18-16.175-16.18h-42.02c-8.922 0-16.18 7.262-16.18 16.18v15.375a134.258 134.258 0 00-28.738 11.93l-10.89-10.887a16.057 16.057 0 00-11.442-4.739c-4.32 0-8.383 1.68-11.437 4.739l-29.711 29.71c-6.309 6.305-6.309 16.571 0 22.88l10.937 10.933a134.56 134.56 0 00-11.867 28.696H110.18c-8.918 0-16.176 7.257-16.176 16.18v42.015c0 8.922 7.258 16.18 16.176 16.18h15.53a134.236 134.236 0 0011.876 28.636l-10.992 10.992c-6.309 6.309-6.309 16.57 0 22.88l29.71 29.71a16.071 16.071 0 0011.438 4.739c4.324 0 8.387-1.684 11.442-4.739l10.992-10.992a134.249 134.249 0 0028.636 11.879v15.527c0 8.922 7.258 16.18 16.18 16.18h42.016c8.922 0 16.18-7.258 16.18-16.18v-15.484c10-2.836 19.605-6.809 28.695-11.863l10.933 10.933a16.057 16.057 0 0011.442 4.739c4.32 0 8.383-1.684 11.437-4.739l29.711-29.71c6.309-6.31 6.309-16.571 0-22.88zm-16.504-51.793a114.59 114.59 0 01-15.39 37.075 10 10 0 001.351 12.46l13.7 13.696-24.305 24.308-13.738-13.734a9.99 9.99 0 00-12.442-1.363 114.5 114.5 0 01-37.039 15.312 10.005 10.005 0 00-7.851 9.77V398h-34.375v-19.488c0-4.692-3.258-8.75-7.836-9.766a114.461 114.461 0 01-36.985-15.34 10.005 10.005 0 00-12.453 1.36l-13.793 13.796-24.309-24.308 13.797-13.793a10 10 0 001.356-12.453 114.575 114.575 0 01-15.336-36.985 10.001 10.001 0 00-9.766-7.836H114v-34.375h19.457a9.997 9.997 0 009.766-7.851 114.5 114.5 0 0115.312-37.04 10 10 0 00-1.363-12.444l-13.734-13.735 24.308-24.305 13.7 13.7a10 10 0 0012.456 1.351 114.625 114.625 0 0137.075-15.39 10.001 10.001 0 007.835-9.766V114h34.375v19.3c0 4.692 3.266 8.755 7.852 9.766a114.551 114.551 0 0137.129 15.368 9.994 9.994 0 0012.45-1.356l13.64-13.64 24.308 24.308-13.64 13.637a10.005 10.005 0 00-1.36 12.453 114.489 114.489 0 0115.371 37.129 9.997 9.997 0 009.766 7.851H398v34.371h-19.332c-4.691 0-8.75 3.258-9.766 7.836zm0 0"/><path d="M240.18 175.531c-5.418 1.063-8.953 6.317-7.89 11.735 1.058 5.422 6.315 8.957 11.733 7.894 20.329-3.976 41.196 2.375 55.817 17 24.176 24.172 24.176 63.508 0 87.68-24.176 24.176-63.508 24.176-87.68 0-14.59-14.586-20.953-35.406-17.023-55.692 1.047-5.421-2.496-10.668-7.918-11.718-5.418-1.059-10.668 2.496-11.719 7.918-5.191 26.816 3.227 54.343 22.52 73.636 15.984 15.985 36.984 23.98 57.98 23.98s41.996-7.995 57.984-23.98c31.97-31.972 31.97-83.996 0-115.968-19.34-19.336-46.93-27.746-73.804-22.485zm0 0"/><path d="M256 294c20.953 0 38-17.047 38-38s-17.047-38-38-38-38 17.047-38 38 17.047 38 38 38zm0-56c9.926 0 18 8.074 18 18s-8.074 18-18 18-18-8.074-18-18 8.074-18 18-18zM470 84c11.219 0 21.766-4.367 29.7-12.3C507.632 63.765 512 53.218 512 42s-4.367-21.766-12.3-29.7C491.765 4.372 481.218 0 470 0s-21.766 4.367-29.7 12.3C432.368 20.235 428 30.782 428 42s4.367 21.766 12.3 29.7C448.235 79.628 458.782 84 470 84zm-15.555-57.555C458.598 22.29 464.125 20 470 20s11.402 2.29 15.559 6.445C489.71 30.602 492 36.125 492 42s-2.29 11.398-6.441 15.555C481.402 61.71 475.875 64 470 64s-11.402-2.29-15.559-6.445C450.29 53.398 448 47.875 448 42s2.29-11.398 6.445-15.555zm-35.371 76.481a9.968 9.968 0 007.07-2.93l.176-.176c3.907-3.906 3.907-10.234 0-14.14s-10.234-3.907-14.14 0l-.18.175c-3.902 3.907-3.902 10.239 0 14.141a9.976 9.976 0 007.074 2.93zm-25.617 25.617a9.968 9.968 0 007.07-2.93l.176-.175c3.906-3.907 3.906-10.239 0-14.141-3.902-3.906-10.234-3.906-14.14 0l-.18.176c-3.903 3.906-3.903 10.238 0 14.14a9.976 9.976 0 007.074 2.93zM499.7 440.3c-7.934-7.933-18.481-12.3-29.7-12.3s-21.766 4.367-29.7 12.3c-7.933 7.934-12.3 18.481-12.3 29.7s4.367 21.766 12.3 29.7c7.934 7.929 18.481 12.3 29.7 12.3s21.766-4.367 29.7-12.3c7.933-7.934 12.3-18.481 12.3-29.7s-4.367-21.766-12.3-29.7zm-14.145 45.255C481.402 489.71 475.875 492 470 492s-11.402-2.29-15.559-6.445C450.29 481.398 448 475.875 448 470s2.29-11.398 6.445-15.555C458.598 450.29 464.125 448 470 448s11.402 2.29 15.555 6.445C489.71 458.602 492 464.125 492 470s-2.29 11.398-6.445 15.555zM426.32 412.18l-.175-.176c-3.907-3.906-10.239-3.906-14.145 0-3.902 3.902-3.902 10.234 0 14.14l.18.176c1.953 1.953 4.511 2.93 7.07 2.93s5.117-.977 7.07-2.93a9.996 9.996 0 000-14.14zm-25.793-25.793c-3.906-3.907-10.238-3.907-14.144 0-3.903 3.902-3.903 10.234 0 14.14l.18.176a9.968 9.968 0 007.07 2.93 9.968 9.968 0 007.07-2.93c3.906-3.902 3.906-10.234 0-14.14zM42 428c-11.219 0-21.766 4.367-29.7 12.3C4.368 448.235 0 458.782 0 470s4.367 21.766 12.3 29.7C20.235 507.628 30.782 512 42 512s21.766-4.367 29.7-12.3C79.632 491.765 84 481.218 84 470s-4.367-21.766-12.3-29.7C63.765 432.372 53.218 428 42 428zm15.555 57.555C53.402 489.71 47.875 492 42 492s-11.402-2.29-15.559-6.445C22.29 481.398 20 475.875 20 470s2.29-11.398 6.441-15.555C30.598 450.29 36.125 448 42 448s11.402 2.29 15.559 6.445C61.71 458.602 64 464.125 64 470s-2.29 11.398-6.445 15.555zm28.3-73.551l-.175.176a9.996 9.996 0 000 14.14c1.953 1.953 4.511 2.93 7.07 2.93s5.117-.977 7.07-2.93l.176-.175c3.906-3.907 3.906-10.239 0-14.141-3.902-3.906-10.234-3.906-14.14 0zm25.618-25.617l-.176.176c-3.906 3.906-3.906 10.238 0 14.14a9.968 9.968 0 007.07 2.93 9.968 9.968 0 007.07-2.93l.176-.176c3.907-3.906 3.907-10.238 0-14.14-3.902-3.907-10.234-3.907-14.14 0zM12.3 71.7C20.235 79.632 30.782 84 42 84s21.766-4.367 29.7-12.3C79.632 63.765 84 53.218 84 42s-4.367-21.766-12.3-29.7C63.765 4.372 53.218 0 42 0S20.234 4.367 12.3 12.3C4.368 20.235 0 30.782 0 42s4.367 21.766 12.3 29.7zm14.145-45.255C30.598 22.29 36.125 20 42 20s11.402 2.29 15.559 6.445C61.71 30.602 64 36.125 64 42s-2.29 11.398-6.445 15.555C53.402 61.71 47.875 64 42 64s-11.402-2.29-15.555-6.445C22.29 53.398 20 47.875 20 42s2.29-11.398 6.445-15.555zM85.68 99.82l.175.176a9.968 9.968 0 007.07 2.93 9.961 9.961 0 007.071-2.93c3.906-3.902 3.906-10.234 0-14.14l-.176-.176c-3.906-3.907-10.234-3.907-14.14 0s-3.907 10.234 0 14.14zm25.793 25.793a9.968 9.968 0 007.07 2.93 9.961 9.961 0 007.07-2.93c3.907-3.902 3.907-10.234 0-14.14l-.175-.176c-3.907-3.906-10.239-3.906-14.141 0-3.906 3.902-3.906 10.234 0 14.14zm93.617 89.477c2.629 0 5.21-1.07 7.07-2.93s2.93-4.441 2.93-7.07-1.07-5.211-2.93-7.07-4.441-2.93-7.07-2.93-5.211 1.07-7.07 2.93-2.93 4.44-2.93 7.07 1.07 5.21 2.93 7.07 4.44 2.93 7.07 2.93zm0 0"/></svg>