<svg xmlns="http://www.w3.org/2000/svg" viewBox="0 0 64 64" width="512" height="512"><path d="M31.878 19H43v-6h3a3 3 0 000-6h-3V3H30a3 3 0 00-3 3v11.823l1.15-.555A2.744 2.744 0 0131.878 19z" fill="#f2a811"/><path d="M56 42a3 3 0 01-6 0v-3h-5v4h-3a3 3 0 000 6h3v6h13a3 3 0 003-3V39h-5z" fill="#10bde0"/><path d="M58 23H45v4h3a3 3 0 010 6h-3v6h5v3a3 3 0 006 0v-3h5V26a3 3 0 00-3-3z" fill="#8ef059"/><path d="M42 49a3 3 0 010-6h3v-4H29v13a3 3 0 003 3h13v-6z" fill="#e3d810"/><circle cx="16" cy="10" fill="#d9d9d9" r="7"/><path d="M31.878 19a2.744 2.744 0 00-3.728-1.732l-1.15.555-5.478 2.645a6.988 6.988 0 00-4.672-3.339 7.108 7.108 0 00-8.235 5.181L4.631 34.861a14.026 14.026 0 00.6 10.047 14.031 14.031 0 01-.223 12.077L3 61h11a3.994 3.994 0 00-3.061-3.878l.97-1.94a14.028 14.028 0 001.255-8.782l-.742-4.08a1.968 1.968 0 113.872-.7l1.358 7.471A21.512 21.512 0 0118 52.944V61h11a3.981 3.981 0 00-.027-.466 3.722 3.722 0 00-5.573-2.62l-.884.5 1.065-5.325A21.529 21.529 0 0024 48.865V40l-1.224-14.081 7.577-3.619a2.719 2.719 0 001.525-3.3z" fill="#d9d9d9"/><path d="M58 22H45a1 1 0 00-1 1v4a1 1 0 001 1h3a2 2 0 010 4h-3a1 1 0 00-1 1v5H29a1 1 0 00-1 1v13a4 4 0 004 4h26a4 4 0 004-4V26a4 4 0 00-4-4zM48 34a4 4 0 000-8h-2v-2h12a2 2 0 012 2v12h-4a1 1 0 00-1 1v3a2 2 0 01-4 0v-3a1 1 0 00-1-1h-4v-4zm-4 20H32a2 2 0 01-2-2V40h14v2h-2a4 4 0 000 8h2zm16-2a2 2 0 01-2 2H46v-5a1 1 0 00-1-1h-3a2 2 0 010-4h3a1 1 0 001-1v-3h3v2a4 4 0 008 0v-2h3z"/><path d="M3 62h11a1 1 0 001-1 4.972 4.972 0 00-2.674-4.417l.478-.954a15.115 15.115 0 001.343-9.408l-.742-4.08A.969.969 0 0114.357 41a.969.969 0 01.954.794l1.358 7.472A20.611 20.611 0 0117 52.944V61a1 1 0 001 1h11a1 1 0 001-1 5.016 5.016 0 00-.034-.582 4.428 4.428 0 00-2.464-3.48 4.846 4.846 0 00-3.606-.32l.666-3.328A22.622 22.622 0 0025 48.865v-8.951l-1.168-13.391 6.939-3.311A3.737 3.737 0 0032.984 20H43a1 1 0 001-1v-5h2a4 4 0 000-8h-2V3a1 1 0 00-1-1H30a4 4 0 00-4 4v11.2l-4.137 2a8.15 8.15 0 00-2.276-2.052 8 8 0 10-7.689-.286 8.019 8.019 0 00-4.236 5.152L3.678 34.559a15 15 0 00.643 10.763 12.973 12.973 0 01-.208 11.216l-2.008 4.015A1 1 0 003 62zm26.953-40.612l-.03.013-13.475 6.429A1.712 1.712 0 0114 26.285a1.722 1.722 0 01.967-1.541l13.583-6.56a1.727 1.727 0 011.659.138A1.721 1.721 0 0131 19.786a1.75 1.75 0 01-1.047 1.602zM30 4h12v3a1 1 0 001 1h3a2 2 0 010 4h-3a1 1 0 00-1 1v5h-9.451A3.737 3.737 0 0028 16.262V6a2 2 0 012-2zm-20 6a6 6 0 116 6 6.006 6.006 0 01-6-6zM5.9 57.432a14.968 14.968 0 00.24-12.938 13 13 0 01-.558-9.33l4-12.6a6.144 6.144 0 017.081-4.452 5.9 5.9 0 013.347 1.976l-5.91 2.855a3.733 3.733 0 00-2.1 3.342 3.706 3.706 0 005.31 3.35l4.6-2.193L23 40v8.865a20.7 20.7 0 01-.4 4.032l-1.066 5.326a1 1 0 001.477 1.065l.884-.506a2.846 2.846 0 012.7-.059A2.512 2.512 0 0127.811 60H19v-7.056a22.572 22.572 0 00-.364-4.036l-1.358-7.471a2.968 2.968 0 10-5.84 1.062l.743 4.08a13.107 13.107 0 01-1.166 8.155l-.971 1.941A1 1 0 0010.7 58.1a2.989 2.989 0 012.128 1.9h-8.21z"/><path d="M33 31.586l-3.293-3.293-1.414 1.414 7 7a1 1 0 001.414 0l7-7-1.414-1.414L39 31.586V26h-2v7.586l-1 1-1-1V30h-2z"/><path d="M33 26h2v2h-2zm0-4h2v2h-2zm4 0h2v2h-2z"/></svg>