<svg xmlns="http://www.w3.org/2000/svg" viewBox="0 0 60 60"><circle cx="30" cy="29" r="29" fill="#3c97d3"/><path d="M30 60C13.458 60 0 46.542 0 30c0-7.993 3.107-15.514 8.749-21.176a2 2 0 112.834 2.822C6.693 16.555 4 23.072 4 30c0 14.337 11.663 26 26 26s26-11.663 26-26C56 16.337 45.405 5.101 32 4.076v10.757a2 2 0 01-4 0V2a2 2 0 012-2c16.542 0 30 13.458 30 30S46.542 60 30 60z" fill="#b1d3ef"/><path d="M20 20.121l12.944 9.363a2.564 2.564 0 11-3.581 3.581L20 20.121z" fill="#b1d3ef"/><circle cx="48" cy="47.981" r="12" fill="#26b999"/><path d="M54.571 42.161a.999.999 0 00-1.392.25l-5.596 8.04-3.949-3.242a.999.999 0 10-1.268 1.546l4.786 3.929a1.003 1.003 0 001.455-.201l6.214-8.929a1.002 1.002 0 00-.25-1.393z" fill="#fff"/></svg>