<svg height="512pt" viewBox="0 0 512 512" width="512pt" xmlns="http://www.w3.org/2000/svg"><g fill-rule="evenodd"><path d="M332.668 512h-150c-16.57 0-30-13.43-30-30V90l14.047-14.824L152.668 60V30c0-16.57 13.43-30 30-30h150c16.566 0 30 13.43 30 30v30L349.5 75l13.168 15v392c0 16.57-13.434 30-30 30zm0 0" fill="#2e52b9"/><path d="M362.668 30c0-16.57-13.434-30-30-30h-74.984v512h74.984c16.566 0 30-13.43 30-30V90L349.5 75l13.168-15zm0 0" fill="#00347b"/><path d="M197.664 452c8.266 0 15-6.738 15-15s-6.734-15-15-15c-8.258 0-15 6.738-15 15 .004 8.262 6.742 15 15 15zm60 0c8.266 0 15-6.738 15-15s-6.734-15-15-15c-8.262 0-15 6.738-15 15 .004 8.262 6.742 15 15 15zm0 0" fill="#a4ffb3"/><path d="M317.668 452c8.262 0 15-6.738 15-15s-6.738-15-15-15-15 6.738-15 15 6.738 15 15 15zm0 0" fill="#00cab1"/><path d="M197.664 392c8.266 0 15-6.738 15-15s-6.734-15-15-15c-8.258 0-15 6.738-15 15 .004 8.262 6.742 15 15 15zm60 0c8.266 0 15-6.738 15-15s-6.734-15-15-15c-8.262 0-15 6.738-15 15 .004 8.262 6.742 15 15 15zm0 0" fill="#a4ffb3"/><path d="M317.668 392c8.262 0 15-6.738 15-15s-6.738-15-15-15-15 6.738-15 15 6.738 15 15 15zm0 0" fill="#00cab1"/><path d="M197.664 332c8.266 0 15-6.738 15-15s-6.734-15-15-15c-8.258 0-15 6.738-15 15 .004 8.262 6.742 15 15 15zm60 0c8.266 0 15-6.738 15-15s-6.734-15-15-15c-8.262 0-15 6.738-15 15 .004 8.262 6.742 15 15 15zm0 0" fill="#a4ffb3"/><path d="M317.668 332c8.262 0 15-6.738 15-15s-6.738-15-15-15-15 6.738-15 15 6.738 15 15 15zm0 0" fill="#00cab1"/><path d="M197.664 272c8.266 0 15-6.738 15-15s-6.734-15-15-15c-8.258 0-15 6.738-15 15 .004 8.262 6.742 15 15 15zm60 0c8.266 0 15-6.738 15-15s-6.734-15-15-15c-8.262 0-15 6.738-15 15 .004 8.262 6.742 15 15 15zm0 0" fill="#a4ffb3"/><path d="M317.668 272c8.262 0 15-6.738 15-15s-6.738-15-15-15-15 6.738-15 15 6.738 15 15 15zm0 0" fill="#00cab1"/></g><path d="M152.668 60h210v30h-210zm0 0" fill="#f5db60"/><path d="M257.684 60h104.98v30h-104.98zm0 0" fill="#e79d45"/><path d="M257.684 242v30c8.254-.012 14.98-6.742 14.98-15s-6.726-14.988-14.98-15zm0 60v30c8.254-.012 14.98-6.742 14.98-15s-6.726-14.988-14.98-15zm0 60v30c8.254-.012 14.98-6.742 14.98-15s-6.726-14.988-14.98-15zm0 60v30c8.254-.012 14.98-6.742 14.98-15s-6.726-14.988-14.98-15zm0 0" fill="#00cab1" fill-rule="evenodd"/><path d="M80.473 295.965c-5.672 0-11.102-3.235-13.633-8.723A74.993 74.993 0 0160 256.06c0-10.75 2.266-21.16 6.73-30.942 3.438-7.535 12.336-10.855 19.875-7.418 7.536 3.442 10.856 12.34 7.415 19.875A44.265 44.265 0 0090 256.06a44.806 44.806 0 004.086 18.625c3.469 7.523.18 16.433-7.344 19.902a14.943 14.943 0 01-6.27 1.379zM34.55 336.54c-4.89 0-9.683-2.388-12.562-6.782C7.602 307.793 0 282.308 0 256.058c0-26.312 7.633-51.84 22.078-73.831 4.547-6.922 13.848-8.848 20.77-4.301 6.925 4.547 8.851 13.847 4.304 20.77A104.208 104.208 0 0030 256.058c0 20.394 5.906 40.195 17.082 57.261 4.54 6.93 2.602 16.227-4.328 20.766a14.931 14.931 0 01-8.203 2.453zm0 0" fill="#a4ffb3"/><path d="M431.527 295.965c-2.101 0-4.234-.442-6.27-1.38-7.523-3.468-10.812-12.378-7.343-19.901A44.806 44.806 0 00422 256.059a44.254 44.254 0 00-4.02-18.485c-3.44-7.535-.12-16.433 7.415-19.875 7.535-3.437 16.433-.117 19.875 7.418A74.011 74.011 0 01452 256.06a74.993 74.993 0 01-6.84 31.183c-2.531 5.488-7.96 8.723-13.633 8.723zm45.923 40.575c-2.817 0-5.669-.794-8.204-2.454-6.93-4.54-8.867-13.836-4.332-20.77A104.207 104.207 0 00482 256.06c0-20.442-5.93-40.278-17.152-57.36-4.547-6.926-2.621-16.226 4.304-20.773 6.922-4.547 16.227-2.621 20.77 4.304C504.367 204.22 512 229.75 512 256.06c0 26.253-7.602 51.738-21.988 73.699-2.88 4.394-7.672 6.781-12.563 6.781zm0 0" fill="#00cab1"/></svg>