<svg height="512pt" viewBox="-18 0 512 512" width="512pt" xmlns="http://www.w3.org/2000/svg"><path d="M35.309 52.965h176.554c19.5 0 35.309 15.808 35.309 35.312v388.414c0 19.5-15.809 35.309-35.309 35.309H35.31C15.809 512 0 496.191 0 476.691V88.277c0-19.504 15.809-35.312 35.309-35.312zm0 0" fill="#464f5d"/><path d="M35.309 123.586h176.554c19.5 0 35.309 15.809 35.309 35.312v273.653c0 19.504-15.809 35.312-35.309 35.312H35.31C15.809 467.863 0 452.055 0 432.551V158.898c0-19.503 15.809-35.312 35.309-35.312zm0 0" fill="#b0d3f0"/><path d="M247.172 158.898v273.653a35.29 35.29 0 0 1-10.34 24.972 35.314 35.314 0 0 1-24.969 10.34H35.31c-15.762.043-29.625-10.426-33.895-25.601 136.738-75.035 177.258-244.965 188.555-318.676h21.894a35.298 35.298 0 0 1 24.969 10.34 35.284 35.284 0 0 1 10.34 24.972zm0 0" fill="#90bae1"/><path d="M123.586 220.691c9.75 0 17.656 7.903 17.656 17.653v44.14c0 9.75-7.906 17.653-17.656 17.653s-17.656-7.903-17.656-17.653v-44.14c0-9.75 7.906-17.653 17.656-17.653zm0 0" fill="#ff5364"/><path d="M123.586 335.45c-29.238-.032-52.934-23.727-52.965-52.966v-8.828a8.829 8.829 0 0 1 17.656 0v8.828c0 19.5 15.809 35.309 35.309 35.309s35.312-15.809 35.312-35.309v-8.828c0-4.875 3.95-8.828 8.825-8.828s8.828 3.953 8.828 8.828v8.828c-.031 29.239-23.727 52.934-52.965 52.965zm0 0" fill="#ff5364"/><path d="M141.242 370.758H105.93a8.829 8.829 0 0 1 0-17.656h8.828v-26.48a8.829 8.829 0 0 1 17.656 0v26.48h8.828a8.829 8.829 0 0 1 0 17.656zm0 0" fill="#ff5364"/><path d="M88.277 97.102a8.84 8.84 0 0 1-3.355-.704 9.17 9.17 0 0 1-2.914-1.855 10.175 10.175 0 0 1-1.852-2.914 8.752 8.752 0 0 1-.707-3.352 9.26 9.26 0 0 1 2.559-6.27 9.092 9.092 0 0 1 2.914-1.85 8.827 8.827 0 0 1 9.621 1.85 8.827 8.827 0 0 1-6.266 15.095zm70.621 0h-35.312c-4.875 0-8.828-3.95-8.828-8.825s3.953-8.828 8.828-8.828h35.312c4.875 0 8.825 3.953 8.825 8.828s-3.95 8.825-8.825 8.825zm0 0" fill="#2c2f38"/><path d="M476.691 44.137v123.586c-.011 24.375-19.765 44.129-44.14 44.14h-52.965l-150.07 79.446L256 211.863h-70.621c-24.371-.011-44.129-19.765-44.137-44.14V44.137C141.25 19.766 161.008.007 185.38 0h247.17c24.375.008 44.129 19.766 44.14 44.137zm0 0" fill="#894b9d"/><path d="M361.93 150.07a8.829 8.829 0 0 1-8.828-8.828v-70.62a8.829 8.829 0 0 1 17.656 0v70.62a8.829 8.829 0 0 1-8.828 8.828zm-105.93 0a8.829 8.829 0 0 1-8.828-8.828v-70.62a8.829 8.829 0 0 1 17.656 0v70.62A8.829 8.829 0 0 1 256 150.07zm70.621 44.137a8.829 8.829 0 0 1-8.828-8.828V35.309c0-4.875 3.953-8.825 8.828-8.825s8.828 3.95 8.828 8.825v150.07a8.829 8.829 0 0 1-8.828 8.828zm-35.312 0c-4.875 0-8.825-3.953-8.825-8.828V35.309a8.822 8.822 0 0 1 8.825-8.825 8.823 8.823 0 0 1 8.828 8.825v150.07a8.826 8.826 0 0 1-8.828 8.828zm-70.618-70.621a8.826 8.826 0 0 1-8.828-8.828V97.102a8.823 8.823 0 0 1 8.828-8.825 8.822 8.822 0 0 1 8.825 8.825v17.656c0 4.875-3.95 8.828-8.825 8.828zm-35.312 17.656a8.829 8.829 0 0 1-8.828-8.828V79.45a8.829 8.829 0 0 1 17.656 0v52.965a8.829 8.829 0 0 1-8.828 8.828zm247.171 0a8.829 8.829 0 0 1-8.827-8.828V79.45a8.829 8.829 0 0 1 17.656 0v52.965a8.829 8.829 0 0 1-8.828 8.828zm-35.308-17.656a8.829 8.829 0 0 1-8.828-8.828V97.102c0-4.875 3.953-8.825 8.828-8.825s8.828 3.95 8.828 8.825v17.656a8.829 8.829 0 0 1-8.828 8.828zm0 0" fill="#f3d55b"/></svg>