<svg xmlns="http://www.w3.org/2000/svg" width="340" height="340" viewBox="0 0 95.956 95.956"><defs><filter id="a" color-interpolation-filters="sRGB"><feGaussianBlur stdDeviation="0.51 0.5" result="blur"/></filter><filter id="b" color-interpolation-filters="sRGB"><feGaussianBlur stdDeviation="0.51 0.5" result="blur"/></filter><filter id="c" color-interpolation-filters="sRGB"><feGaussianBlur stdDeviation="0.51 0.5" result="blur"/></filter><filter id="d" color-interpolation-filters="sRGB"><feGaussianBlur stdDeviation="0.51 0.5" result="blur"/></filter><filter id="e" color-interpolation-filters="sRGB"><feGaussianBlur stdDeviation="0.51 0.5" result="blur"/></filter><filter id="f" color-interpolation-filters="sRGB"><feGaussianBlur stdDeviation="0.51 0.5" result="blur"/></filter></defs><g fill="#fff" fill-rule="evenodd" stroke="#fff" stroke-width=".511" stroke-dashoffset="7.56"><path d="M39.429 22.429C21.226 22.429 6.57 40.774 6.57 63.56v183.153h65.715V63.56c0-22.787-14.654-41.132-32.857-41.132z" transform="matrix(.20247 0 0 .17976 15.622 -.076)" stroke-dasharray="0,5.61595349999999982" filter="url(#a)"/><path d="M39.429 14.025C21.226 14.025 6.57 32.37 6.57 55.157v98.868h61.354c1.479 0 2.933.089 4.361.246V55.157c0-22.787-14.654-41.132-32.857-41.132z" transform="matrix(.20247 0 0 .17976 39.764 16.586)" stroke-dasharray="0,5.61595357000000028" filter="url(#b)"/><path d="M39.429 8C21.226 8 6.57 26.346 6.57 49.133V88h65.715V49.133C72.286 26.346 57.632 8 39.43 8z" transform="matrix(.20247 0 0 .17976 64.367 28.455)" stroke-dasharray="0,5.61595353999999958" filter="url(#c)"/><path d="M39.429 22.429C21.226 22.429 6.57 40.774 6.57 63.56v183.153h65.715V63.56c0-22.787-14.654-41.132-32.857-41.132z" transform="matrix(.20247 0 0 -.17976 15.622 96.032)" stroke-dasharray="0,5.61595349999999982" filter="url(#d)"/><path d="M39.429 14.025C21.226 14.025 6.57 32.37 6.57 55.157v98.868h61.354c1.479 0 2.933.089 4.361.246V55.157c0-22.787-14.654-41.132-32.857-41.132z" transform="matrix(.20247 0 0 -.17976 39.764 79.324)" stroke-dasharray="0,5.61595357000000028" filter="url(#e)"/><path d="M39.429 8C21.226 8 6.57 26.346 6.57 49.133V88h65.715V49.133C72.286 26.346 57.632 8 39.43 8z" transform="matrix(.20247 0 0 -.17976 64.367 67.283)" stroke-dasharray="0,5.61595353999999958" filter="url(#f)"/></g></svg>